<?xml version="1.0" encoding="UTF-8" standalone="no"?>
<!-- Created with Inkscape (http://www.inkscape.org/) -->

<svg
   width="132.7095mm"
   height="139.86354mm"
   viewBox="0 0 132.7095 139.86354"
   version="1.1"
   id="svg1"
   inkscape:version="1.4.2 (ebf0e940d0, 2025-05-08)"
   sodipodi:docname="step-3.svg"
   xml:space="preserve"
   xmlns:inkscape="http://www.inkscape.org/namespaces/inkscape"
   xmlns:sodipodi="http://sodipodi.sourceforge.net/DTD/sodipodi-0.dtd"
   xmlns="http://www.w3.org/2000/svg"
   xmlns:svg="http://www.w3.org/2000/svg"><sodipodi:namedview
     id="namedview1"
     pagecolor="#ffffff"
     bordercolor="#666666"
     borderopacity="1.0"
     inkscape:showpageshadow="2"
     inkscape:pageopacity="0.0"
     inkscape:pagecheckerboard="0"
     inkscape:deskcolor="#d1d1d1"
     inkscape:document-units="mm"
     inkscape:zoom="1.9275637"
     inkscape:cx="137.21985"
     inkscape:cy="325.28107"
     inkscape:window-width="1920"
     inkscape:window-height="1173"
     inkscape:window-x="10"
     inkscape:window-y="10"
     inkscape:window-maximized="0"
     inkscape:current-layer="layer1" /><defs
     id="defs1" /><g
     inkscape:label="Layer 1"
     inkscape:groupmode="layer"
     id="layer1"
     transform="translate(-24.690233,-62.077039)"><rect
       style="fill:none;fill-opacity:1;stroke:#333333;stroke-width:0.5;stroke-linecap:round;stroke-linejoin:round;stroke-dasharray:none;stroke-opacity:1;paint-order:markers fill stroke"
       id="rect1"
       width="65.061478"
       height="130.12296"
       x="24.940233"
       y="71.567619"
       ry="6.2118177" /><rect
       style="fill:#999999;stroke:#333333;stroke-width:0.5;stroke-linecap:round;stroke-linejoin:round;stroke-dasharray:none;stroke-opacity:1;paint-order:markers fill stroke"
       id="rect2"
       width="16.485271"
       height="16.485271"
       x="35.845882"
       y="84.726624" /><rect
       style="fill:#d40000;fill-opacity:1;stroke:#800000;stroke-width:0.5;stroke-linecap:round;stroke-linejoin:round;stroke-dasharray:none;stroke-opacity:1;paint-order:markers fill stroke"
       id="rect4"
       width="16.485271"
       height="16.485271"
       x="40.294014"
       y="112.35963" /><rect
       style="fill:#30ba78;fill-opacity:1;stroke:#279965;stroke-width:0.5;stroke-linecap:round;stroke-linejoin:round;stroke-dasharray:none;stroke-opacity:1;paint-order:markers fill stroke"
       id="rect5"
       width="16.485271"
       height="16.485271"
       x="64.446854"
       y="124.05267" /><rect
       style="fill:#30ba78;fill-opacity:1;stroke:#279965;stroke-width:0.5;stroke-linecap:round;stroke-linejoin:round;stroke-dasharray:none;stroke-opacity:1;paint-order:markers fill stroke"
       id="rect6"
       width="16.485271"
       height="16.485271"
       x="42.698593"
       y="145.4192" /><rect
       style="fill:#999999;stroke:#333333;stroke-width:0.5;stroke-linecap:round;stroke-linejoin:round;stroke-dasharray:none;stroke-opacity:1;paint-order:markers fill stroke"
       id="rect7"
       width="16.485271"
       height="16.485271"
       x="64.638542"
       y="168.90796" /><rect
       style="fill:#999999;stroke:#333333;stroke-width:0.5;stroke-linecap:round;stroke-linejoin:round;stroke-dasharray:none;stroke-opacity:1;paint-order:markers fill stroke"
       id="rect8"
       width="16.485271"
       height="16.485271"
       x="35.885162"
       y="175.80878" /><text
       xml:space="preserve"
       style="font-size:7.6051px;line-height:1.25;font-family:'Liberation Mono';-inkscape-font-specification:'Liberation Mono';text-align:center;text-anchor:middle;fill:#4d4d4d;stroke-width:0.190127"
       x="57.474781"
       y="67.514687"
       id="text8"><tspan
         sodipodi:role="line"
         style="font-style:normal;font-variant:normal;font-weight:300;font-stretch:normal;font-size:7.6051px;font-family:SUSE;-inkscape-font-specification:'SUSE, Light';font-variant-ligatures:normal;font-variant-caps:normal;font-variant-numeric:normal;font-variant-east-asian:normal;fill:#4d4d4d;stroke-width:0.190127"
         x="57.474781"
         y="67.514687"
         id="tspan10">BINARY PROGRAM</tspan></text><rect
       style="fill:none;stroke:#279965;stroke-width:0.5;stroke-linecap:round;stroke-linejoin:round;stroke-dasharray:none;stroke-opacity:1;paint-order:markers fill stroke"
       id="rect18"
       width="40.239429"
       height="41.236893"
       x="116.9103"
       y="116.01065"
       ry="6.4059372" /><text
       xml:space="preserve"
       style="font-size:9.80457051px;line-height:1.25;font-family:SUSE;-inkscape-font-specification:'SUSE, Light';text-align:center;text-anchor:middle;fill:#ffffff;stroke-width:0.245114;font-weight:300;font-style:normal;font-stretch:normal;font-variant:normal;font-variant-ligatures:normal;font-variant-caps:normal;font-variant-numeric:normal;font-variant-east-asian:normal"
       x="48.60038"
       y="124.02406"
       id="text22"><tspan
         sodipodi:role="line"
         style="font-style:normal;font-variant:normal;font-weight:300;font-stretch:normal;font-size:9.80457051px;font-family:SUSE;-inkscape-font-specification:'SUSE, Light';font-variant-ligatures:normal;font-variant-caps:normal;font-variant-numeric:normal;font-variant-east-asian:normal;fill:#ffffff;stroke-width:0.245114"
         x="48.60038"
         y="124.02406"
         id="tspan22">!</tspan></text><text
       xml:space="preserve"
       style="font-size:9.80457051px;line-height:1.25;font-family:SUSE;-inkscape-font-specification:'SUSE, Light';text-align:center;text-anchor:middle;fill:#333333;stroke-width:0.245114;font-weight:300;font-style:normal;font-stretch:normal;font-variant:normal;font-variant-ligatures:normal;font-variant-caps:normal;font-variant-numeric:normal;font-variant-east-asian:normal"
       x="44.152248"
       y="96.391052"
       id="text24"><tspan
         sodipodi:role="line"
         style="font-style:normal;font-variant:normal;font-weight:300;font-stretch:normal;font-size:9.80457051px;font-family:SUSE;-inkscape-font-specification:'SUSE, Light';font-variant-ligatures:normal;font-variant-caps:normal;font-variant-numeric:normal;font-variant-east-asian:normal;fill:#333333;stroke-width:0.245114"
         x="44.152248"
         y="96.391052"
         id="tspan24">?</tspan></text><text
       xml:space="preserve"
       style="font-size:9.80457051px;line-height:1.25;font-family:SUSE;-inkscape-font-specification:'SUSE, Light';text-align:center;text-anchor:middle;fill:#333333;stroke-width:0.245114;font-weight:300;font-style:normal;font-stretch:normal;font-variant:normal;font-variant-ligatures:normal;font-variant-caps:normal;font-variant-numeric:normal;font-variant-east-asian:normal"
       x="72.944908"
       y="180.57239"
       id="text26"><tspan
         sodipodi:role="line"
         style="font-style:normal;font-variant:normal;font-weight:300;font-stretch:normal;font-size:9.80457051px;font-family:SUSE;-inkscape-font-specification:'SUSE, Light';font-variant-ligatures:normal;font-variant-caps:normal;font-variant-numeric:normal;font-variant-east-asian:normal;fill:#333333;stroke-width:0.245114"
         x="72.944908"
         y="180.57239"
         id="tspan26">?</tspan></text><text
       xml:space="preserve"
       style="font-size:9.80457051px;line-height:1.25;font-family:SUSE;-inkscape-font-specification:'SUSE, Light';text-align:center;text-anchor:middle;fill:#333333;stroke-width:0.245114;font-weight:300;font-style:normal;font-stretch:normal;font-variant:normal;font-variant-ligatures:normal;font-variant-caps:normal;font-variant-numeric:normal;font-variant-east-asian:normal"
       x="44.191528"
       y="187.47321"
       id="text27"><tspan
         sodipodi:role="line"
         style="font-style:normal;font-variant:normal;font-weight:300;font-stretch:normal;font-size:9.80457051px;font-family:SUSE;-inkscape-font-specification:'SUSE, Light';font-variant-ligatures:normal;font-variant-caps:normal;font-variant-numeric:normal;font-variant-east-asian:normal;fill:#333333;stroke-width:0.245114"
         x="44.191528"
         y="187.47321"
         id="tspan27">?</tspan></text><path
       style="fill:none;stroke:#279965;stroke-width:0.5;stroke-linecap:butt;stroke-linejoin:round;stroke-dasharray:none;stroke-opacity:1;paint-order:normal"
       d="m 80.932128,132.29531 36.171552,2.54937"
       id="path28"
       sodipodi:nodetypes="cc" /><path
       style="fill:none;stroke:#279965;stroke-width:0.5;stroke-linecap:butt;stroke-linejoin:round;stroke-dasharray:none;stroke-opacity:1;paint-order:normal"
       d="M 59.183865,153.66184 117.10368,142.34861"
       id="path29"
       sodipodi:nodetypes="cc" /><text
       xml:space="preserve"
       style="font-size:7.6051px;line-height:1.25;font-family:'Liberation Mono';-inkscape-font-specification:'Liberation Mono';text-align:center;text-anchor:middle;fill:#279965;fill-opacity:1;stroke-width:0.190127"
       x="137.18593"
       y="111.54387"
       id="text2"><tspan
         sodipodi:role="line"
         style="font-style:normal;font-variant:normal;font-weight:300;font-stretch:normal;font-size:7.6051px;font-family:SUSE;-inkscape-font-specification:'SUSE, Light';font-variant-ligatures:normal;font-variant-caps:normal;font-variant-numeric:normal;font-variant-east-asian:normal;fill:#279965;fill-opacity:1;stroke-width:0.190127"
         x="137.18593"
         y="111.54387"
         id="tspan2">TEST SUITE</tspan></text><path
       style="fill:#4d4d4d;stroke-width:0.299879"
       d="m 142.77182,144.58279 c -1.6035,-1.60394 -2.91545,-2.97419 -2.91545,-3.04499 0,-0.0708 0.0556,-0.17489 0.12357,-0.2313 0.10796,-0.0896 0.046,-0.18052 -0.48973,-0.71947 l -0.6133,-0.61692 -0.20452,0.14419 c -0.38646,0.27243 -1.02959,0.55963 -1.72731,0.77133 -0.60833,0.18457 -0.84266,0.21274 -1.80962,0.21754 -0.92921,0.005 -1.21457,-0.024 -1.74554,-0.17547 -2.72739,-0.77765 -4.62171,-2.96777 -4.97306,-5.74961 -0.24736,-1.95846 0.41508,-3.91351 1.82663,-5.39097 3.52134,-3.68574 9.60244,-2.33483 11.24632,2.49836 0.6015,1.76849 0.38489,3.9155 -0.55199,5.47134 l -0.26723,0.4438 0.60681,0.60325 c 0.55774,0.55448 0.61713,0.59293 0.73452,0.47555 0.0736,-0.0736 0.19031,-0.10776 0.2754,-0.0806 0.0812,0.0258 1.44683,1.34672 3.03466,2.93519 2.51639,2.51741 2.88092,2.91221 2.83986,3.07577 -0.064,0.25502 -2.12739,2.2893 -2.32205,2.2893 -0.0948,0 -1.25566,-1.10345 -3.06797,-2.91625 z m 1.9651,-1.9224 -2.49985,-2.49986 -0.69394,0.69394 -0.69393,0.69394 2.49776,2.49871 2.49777,2.49871 0.69602,-0.6928 0.69602,-0.6928 z m -3.98471,-3.27108 -0.53367,-0.53779 -0.34044,0.33411 -0.34043,0.33411 0.53367,0.53779 0.53367,0.5378 0.34043,-0.33412 0.34044,-0.3341 z m -4.10924,0.77267 c 1.62331,-0.44109 3.07902,-1.65369 3.80983,-3.17356 1.67824,-3.49028 -0.38019,-7.62661 -4.18335,-8.40632 -3.11151,-0.63791 -6.16466,1.32431 -6.97415,4.48219 -0.15546,0.60646 -0.1371,2.20115 0.0324,2.81885 0.60696,2.21129 2.32786,3.84894 4.5779,4.35646 0.64437,0.14535 2.06501,0.10506 2.73733,-0.0776 z m -2.65798,-0.72063 c -1.42983,-0.30708 -2.84428,-1.42201 -3.47816,-2.7416 -0.73748,-1.53524 -0.7368,-3.05081 0.002,-4.5888 0.45379,-0.94464 1.34508,-1.83612 2.29044,-2.29092 2.09223,-1.00655 4.28502,-0.64558 5.91432,0.97358 0.50664,0.50349 0.71242,0.78105 0.97338,1.31288 0.74968,1.52785 0.74968,3.07405 0,4.6019 -0.46435,0.94632 -1.34394,1.82591 -2.29026,2.29025 -1.10352,0.54148 -2.25575,0.691 -3.41175,0.44271 z m 2.12323,-0.7895 c 0.78373,-0.18478 1.42299,-0.55284 2.05106,-1.18091 0.86889,-0.86889 1.29803,-1.8817 1.29803,-3.0635 0,-1.85147 -1.21317,-3.52686 -2.99758,-4.13965 -0.75272,-0.25851 -1.97517,-0.25851 -2.72788,0 -1.30802,0.44919 -2.32699,1.46975 -2.77789,2.78221 -0.25625,0.74592 -0.25528,1.97172 0.002,2.72139 0.4829,1.40614 1.71625,2.54339 3.12979,2.88591 0.56755,0.13753 1.42571,0.13521 2.0223,-0.005 z m -1.89417,-0.78909 c -0.93485,-0.25778 -1.83768,-0.97087 -2.24374,-1.77221 -0.23693,-0.46756 -0.44496,-1.20084 -0.44496,-1.56847 0,-0.32355 0.23932,-0.54815 0.51132,-0.47987 0.20858,0.0524 0.23657,0.12001 0.32168,0.77758 0.0668,0.51614 0.45866,1.26307 0.8464,1.61337 0.42435,0.38339 1.02685,0.65363 1.64602,0.7383 0.49263,0.0674 0.63815,0.16368 0.64051,0.42387 0.003,0.36771 -0.51782,0.47684 -1.27723,0.26743 z"
       id="path1" /><rect
       style="fill:#999999;stroke:#333333;stroke-width:0.5;stroke-linecap:round;stroke-linejoin:round;stroke-dasharray:none;stroke-opacity:1;paint-order:markers fill stroke"
       id="rect3"
       width="16.485271"
       height="16.485271"
       x="63.023972"
       y="92.276093" /><text
       xml:space="preserve"
       style="font-size:9.80457051px;line-height:1.25;font-family:SUSE;-inkscape-font-specification:'SUSE, Light';text-align:center;text-anchor:middle;fill:#333333;stroke-width:0.245114;font-weight:300;font-style:normal;font-stretch:normal;font-variant:normal;font-variant-ligatures:normal;font-variant-caps:normal;font-variant-numeric:normal;font-variant-east-asian:normal"
       x="71.330338"
       y="103.94052"
       id="text3"><tspan
         sodipodi:role="line"
         style="font-style:normal;font-variant:normal;font-weight:300;font-stretch:normal;font-size:9.80457051px;font-family:SUSE;-inkscape-font-specification:'SUSE, Light';font-variant-ligatures:normal;font-variant-caps:normal;font-variant-numeric:normal;font-variant-east-asian:normal;fill:#333333;stroke-width:0.245114"
         x="71.330338"
         y="103.94052"
         id="tspan3">?</tspan></text><path
       style="fill:none;stroke:#ffffff;stroke-width:0.8;stroke-linecap:round;stroke-linejoin:round;stroke-dasharray:none;stroke-opacity:1"
       d="m 69.626974,132.01276 1.194745,2.79624 4.930286,-5.02735"
       id="path3"
       sodipodi:nodetypes="ccc" /><path
       style="fill:none;stroke:#ffffff;stroke-width:0.8;stroke-linecap:round;stroke-linejoin:round;stroke-dasharray:none;stroke-opacity:1"
       d="m 47.878713,153.37929 1.194745,2.79624 4.930286,-5.02735"
       id="path4"
       sodipodi:nodetypes="ccc" /></g></svg>
