<?xml version="1.0" encoding="UTF-8" standalone="no"?>
<!-- Created with Inkscape (http://www.inkscape.org/) -->

<svg
   version="1.1"
   id="svg1"
   width="569.50311"
   height="543.87543"
   viewBox="0 0 569.50312 543.87542"
   sodipodi:docname="Linux_Days_RGB_pozitiv.pdf"
   xmlns:inkscape="http://www.inkscape.org/namespaces/inkscape"
   xmlns:sodipodi="http://sodipodi.sourceforge.net/DTD/sodipodi-0.dtd"
   xmlns="http://www.w3.org/2000/svg"
   xmlns:svg="http://www.w3.org/2000/svg">
  <defs
     id="defs1">
    <clipPath
       clipPathUnits="userSpaceOnUse"
       id="clipPath2">
      <path
         d="M 0,550 H 600 V 0 H 0 Z"
         transform="translate(-233.86711,-279.9203)"
         id="path2" />
    </clipPath>
    <clipPath
       clipPathUnits="userSpaceOnUse"
       id="clipPath4">
      <path
         d="M 0,550 H 600 V 0 H 0 Z"
         transform="translate(-290.4955,-279.9203)"
         id="path4" />
    </clipPath>
    <clipPath
       clipPathUnits="userSpaceOnUse"
       id="clipPath6">
      <path
         d="M 0,550 H 600 V 0 H 0 Z"
         transform="translate(-315.05731,-279.9203)"
         id="path6" />
    </clipPath>
    <clipPath
       clipPathUnits="userSpaceOnUse"
       id="clipPath8">
      <path
         d="M 0,550 H 600 V 0 H 0 Z"
         transform="translate(-392.41531,-278.91421)"
         id="path8" />
    </clipPath>
    <clipPath
       clipPathUnits="userSpaceOnUse"
       id="clipPath10">
      <path
         d="M 0,550 H 600 V 0 H 0 Z"
         transform="translate(-431.98251,-279.9203)"
         id="path10" />
    </clipPath>
    <clipPath
       clipPathUnits="userSpaceOnUse"
       id="clipPath12">
      <path
         d="M 0,550 H 600 V 0 H 0 Z"
         transform="translate(-261.14041,-205.74181)"
         id="path12" />
    </clipPath>
    <clipPath
       clipPathUnits="userSpaceOnUse"
       id="clipPath14">
      <path
         d="M 0,550 H 600 V 0 H 0 Z"
         transform="translate(-332.45461,-202.2218)"
         id="path14" />
    </clipPath>
    <clipPath
       clipPathUnits="userSpaceOnUse"
       id="clipPath16">
      <path
         d="M 0,550 H 600 V 0 H 0 Z"
         transform="translate(-377.02141,-173.6555)"
         id="path16" />
    </clipPath>
    <clipPath
       clipPathUnits="userSpaceOnUse"
       id="clipPath18">
      <path
         d="M 0,550 H 600 V 0 H 0 Z"
         transform="translate(-444.34091,-191.762)"
         id="path18" />
    </clipPath>
    <clipPath
       clipPathUnits="userSpaceOnUse"
       id="clipPath20">
      <path
         d="M 0,550 H 600 V 0 H 0 Z"
         transform="translate(-316.94061,-104.24761)"
         id="path20" />
    </clipPath>
  </defs>
  <sodipodi:namedview
     id="namedview1"
     pagecolor="#ffffff"
     bordercolor="#000000"
     borderopacity="0.25"
     inkscape:showpageshadow="2"
     inkscape:pageopacity="0.0"
     inkscape:pagecheckerboard="0"
     inkscape:deskcolor="#d1d1d1" />
  <g
     id="layer-MC0"
     inkscape:groupmode="layer"
     inkscape:label="Vrstva 1"
     transform="translate(-104.71225,-95.2872)">
    <g
       id="g21"
       inkscape:export-filename="stopa.png"
       inkscape:export-xdpi="67.4272"
       inkscape:export-ydpi="67.4272">
      <g
         id="g20">
        <path
           id="path1"
           d="m 0,0 c -0.739,0 -1.342,0.235 -1.81,0.704 -0.471,0.468 -0.705,1.072 -0.705,1.811 v 65.38 c 0,0.736 0.234,1.339 0.705,1.81 0.468,0.468 1.071,0.704 1.81,0.704 h 11.165 c 0.737,0 1.341,-0.236 1.81,-0.704 0.469,-0.471 0.705,-1.074 0.705,-1.81 V 13.478 h 31.18 c 0.737,0 1.341,-0.236 1.811,-0.704 0.468,-0.47 0.704,-1.074 0.704,-1.81 V 2.515 C 47.375,1.776 47.139,1.172 46.671,0.704 46.201,0.235 45.597,0 44.86,0 Z"
           style="fill:#000000;fill-opacity:1;fill-rule:nonzero;stroke:none"
           transform="matrix(1.3333333,0,0,-1.3333333,311.8228,360.10627)"
           clip-path="url(#clipPath2)" />
        <path
           id="path3"
           d="m 0,0 c -0.671,0 -1.242,0.235 -1.71,0.704 -0.47,0.468 -0.705,1.072 -0.705,1.811 v 47.274 c 0,0.737 0.235,1.341 0.705,1.81 0.468,0.468 1.039,0.704 1.71,0.704 h 10.058 c 0.737,0 1.341,-0.236 1.81,-0.704 0.469,-0.469 0.705,-1.073 0.705,-1.81 V 2.515 C 12.573,1.776 12.337,1.172 11.868,0.704 11.399,0.235 10.795,0 10.058,0 Z m -0.302,60.35 c -0.671,0 -1.242,0.235 -1.71,0.704 -0.469,0.468 -0.704,1.073 -0.704,1.811 v 8.047 c 0,0.737 0.235,1.357 0.704,1.86 0.468,0.503 1.039,0.755 1.71,0.755 h 10.561 c 0.738,0 1.358,-0.252 1.861,-0.755 0.503,-0.503 0.754,-1.123 0.754,-1.86 v -8.047 c 0,-0.738 -0.251,-1.343 -0.754,-1.811 -0.503,-0.469 -1.123,-0.704 -1.861,-0.704 z"
           style="fill:#000000;fill-opacity:1;fill-rule:nonzero;stroke:none"
           transform="matrix(1.3333333,0,0,-1.3333333,387.32733,360.10627)"
           clip-path="url(#clipPath4)" />
        <path
           id="path5"
           d="m 0,0 c -0.671,0 -1.242,0.235 -1.71,0.704 -0.47,0.468 -0.705,1.072 -0.705,1.811 v 47.274 c 0,0.737 0.235,1.341 0.705,1.81 0.468,0.468 1.039,0.704 1.71,0.704 h 9.857 c 0.736,0 1.34,-0.236 1.81,-0.704 0.469,-0.469 0.704,-1.073 0.704,-1.81 v -3.923 c 1.742,2.146 3.99,3.923 6.739,5.331 2.748,1.408 6.102,2.112 10.059,2.112 3.956,0 7.426,-0.889 10.409,-2.666 2.983,-1.777 5.331,-4.359 7.042,-7.745 1.709,-3.385 2.565,-7.492 2.565,-12.321 V 2.515 C 49.185,1.776 48.934,1.172 48.43,0.704 47.928,0.235 47.341,0 46.671,0 H 36.008 C 35.27,0 34.666,0.235 34.199,0.704 33.727,1.172 33.494,1.776 33.494,2.515 v 27.459 c 0,3.554 -0.856,6.32 -2.564,8.298 -1.711,1.977 -4.21,2.967 -7.494,2.967 -3.154,0 -5.668,-0.99 -7.545,-2.967 -1.878,-1.978 -2.817,-4.744 -2.817,-8.298 V 2.515 C 13.074,1.776 12.838,1.172 12.371,0.704 11.9,0.235 11.33,0 10.661,0 Z"
           style="fill:#000000;fill-opacity:1;fill-rule:nonzero;stroke:none"
           transform="matrix(1.3333333,0,0,-1.3333333,420.0764,360.10627)"
           clip-path="url(#clipPath6)" />
        <path
           id="path7"
           d="m 0,0 c -3.891,0 -7.328,0.889 -10.309,2.666 -2.986,1.776 -5.299,4.358 -6.942,7.745 -1.643,3.384 -2.464,7.494 -2.464,12.321 v 28.063 c 0,0.737 0.234,1.341 0.705,1.81 0.467,0.468 1.039,0.704 1.709,0.704 h 10.662 c 0.738,0 1.34,-0.236 1.81,-0.704 0.469,-0.469 0.704,-1.073 0.704,-1.81 v -27.46 c 0,-7.51 3.285,-11.265 9.858,-11.265 3.151,0 5.648,0.989 7.494,2.967 1.844,1.977 2.765,4.743 2.765,8.298 v 27.46 c 0,0.737 0.236,1.341 0.705,1.81 0.467,0.468 1.071,0.704 1.811,0.704 h 10.661 c 0.67,0 1.239,-0.236 1.71,-0.704 0.467,-0.469 0.703,-1.073 0.703,-1.81 V 3.521 c 0,-0.739 -0.236,-1.343 -0.703,-1.811 -0.471,-0.469 -1.04,-0.704 -1.71,-0.704 h -9.858 c -0.737,0 -1.342,0.235 -1.809,0.704 -0.471,0.468 -0.705,1.072 -0.705,1.811 V 7.444 C 15.053,5.029 12.806,3.184 10.058,1.912 7.309,0.638 3.954,0 0,0"
           style="fill:#000000;fill-opacity:1;fill-rule:nonzero;stroke:none"
           transform="matrix(1.3333333,0,0,-1.3333333,523.2204,361.44773)"
           clip-path="url(#clipPath8)" />
        <path
           id="path9"
           d="m 0,0 c -0.602,0 -1.122,0.217 -1.558,0.654 -0.437,0.435 -0.655,0.955 -0.655,1.559 0,0.201 0.053,0.453 0.153,0.754 0.1,0.302 0.251,0.587 0.452,0.855 L 15.39,26.855 -0.201,48.482 c -0.201,0.266 -0.351,0.536 -0.451,0.804 -0.101,0.267 -0.151,0.536 -0.151,0.804 0,0.605 0.216,1.123 0.652,1.56 0.437,0.435 0.956,0.653 1.561,0.653 h 10.46 c 0.805,0 1.425,-0.201 1.861,-0.603 0.434,-0.402 0.755,-0.772 0.956,-1.107 l 10.359,-14.081 10.36,13.981 c 0.268,0.335 0.604,0.72 1.006,1.157 0.403,0.435 1.038,0.653 1.911,0.653 h 9.958 c 0.605,0 1.122,-0.218 1.558,-0.653 0.437,-0.437 0.655,-0.955 0.655,-1.56 0,-0.268 -0.035,-0.537 -0.1,-0.804 -0.068,-0.268 -0.236,-0.538 -0.502,-0.804 L 33.998,26.755 51.199,3.822 C 51.4,3.554 51.55,3.284 51.651,3.017 c 0.1,-0.268 0.15,-0.537 0.15,-0.804 0,-0.604 -0.218,-1.124 -0.652,-1.559 C 50.71,0.217 50.193,0 49.588,0 H 38.624 c -0.737,0 -1.307,0.184 -1.708,0.553 -0.404,0.368 -0.74,0.72 -1.006,1.056 L 24.745,16.496 13.38,1.609 C 13.177,1.341 12.876,1.006 12.474,0.603 12.07,0.201 11.468,0 10.663,0 Z"
           style="fill:#000000;fill-opacity:1;fill-rule:nonzero;stroke:none"
           transform="matrix(1.3333333,0,0,-1.3333333,575.97667,360.10627)"
           clip-path="url(#clipPath10)" />
        <path
           id="path11"
           d="m 0,0 h 11.769 c 3.352,0 6.101,0.504 8.247,1.51 2.146,1.006 3.738,2.597 4.778,4.777 1.039,2.178 1.592,5.013 1.66,8.5 0.066,1.945 0.117,3.686 0.15,5.231 0.034,1.541 0.034,3.084 0,4.627 -0.033,1.54 -0.084,3.251 -0.15,5.128 -0.136,5.03 -1.425,8.734 -3.873,11.115 -2.448,2.38 -6.22,3.572 -11.315,3.572 H 0 Z m -13.478,-12.974 c -0.739,0 -1.342,0.234 -1.81,0.703 -0.47,0.469 -0.705,1.074 -0.705,1.811 v 65.38 c 0,0.737 0.235,1.34 0.705,1.811 0.468,0.467 1.071,0.703 1.81,0.703 h 25.247 c 6.704,0 12.304,-1.057 16.797,-3.169 4.491,-2.11 7.929,-5.196 10.311,-9.253 2.378,-4.057 3.635,-9.07 3.771,-15.036 0.066,-2.953 0.101,-5.532 0.101,-7.745 0,-2.213 -0.035,-4.764 -0.101,-7.645 -0.201,-6.237 -1.443,-11.4 -3.721,-15.489 -2.281,-4.092 -5.634,-7.128 -10.06,-9.105 -4.425,-1.977 -9.957,-2.966 -16.596,-2.966 z"
           style="fill:#000000;fill-opacity:1;fill-rule:nonzero;stroke:none"
           transform="matrix(1.3333333,0,0,-1.3333333,348.1872,459.01093)"
           clip-path="url(#clipPath12)" />
        <path
           id="path13"
           d="m 0,0 c 2.213,0 4.19,0.469 5.934,1.41 1.743,0.936 3.118,2.378 4.124,4.323 1.006,1.944 1.508,4.393 1.508,7.343 v 1.711 l -9.353,-1.51 c -3.621,-0.602 -6.27,-1.508 -7.946,-2.715 -1.678,-1.206 -2.514,-2.684 -2.514,-4.425 0,-1.275 0.384,-2.381 1.157,-3.32 0.768,-0.94 1.791,-1.643 3.066,-2.112 C -2.75,0.236 -1.408,0 0,0 m -4.024,-10.46 c -3.555,0 -6.739,0.688 -9.554,2.063 -2.818,1.372 -5.064,3.234 -6.739,5.582 -1.677,2.346 -2.515,4.96 -2.515,7.845 0,4.76 1.927,8.516 5.784,11.265 3.854,2.75 8.934,4.627 15.237,5.633 l 13.176,1.911 v 1.81 c 0,2.616 -0.602,4.628 -1.809,6.036 -1.207,1.407 -3.319,2.112 -6.337,2.112 -2.213,0 -3.992,-0.436 -5.331,-1.307 -1.343,-0.873 -2.381,-2.012 -3.119,-3.42 -0.537,-0.873 -1.307,-1.309 -2.313,-1.309 h -9.554 c -0.739,0 -1.309,0.218 -1.71,0.655 -0.403,0.434 -0.571,0.956 -0.503,1.558 0,1.139 0.435,2.481 1.307,4.024 0.871,1.541 2.213,3.068 4.022,4.576 1.811,1.508 4.125,2.767 6.942,3.773 2.815,1.004 6.267,1.508 10.359,1.508 4.225,0 7.846,-0.504 10.864,-1.508 3.018,-1.006 5.431,-2.415 7.241,-4.224 1.811,-1.812 3.151,-3.909 4.024,-6.288 0.87,-2.381 1.307,-4.945 1.307,-7.694 V -6.94 c 0,-0.737 -0.236,-1.342 -0.703,-1.811 -0.471,-0.469 -1.073,-0.703 -1.811,-0.703 h -9.857 c -0.673,0 -1.242,0.234 -1.711,0.703 -0.47,0.469 -0.703,1.074 -0.703,1.811 v 3.721 C 11.097,-4.493 9.923,-5.683 8.45,-6.789 6.972,-7.896 5.214,-8.784 3.169,-9.454 1.122,-10.124 -1.274,-10.46 -4.024,-10.46"
           style="fill:#000000;fill-opacity:1;fill-rule:nonzero;stroke:none"
           transform="matrix(1.3333333,0,0,-1.3333333,443.2728,463.70427)"
           clip-path="url(#clipPath14)" />
        <path
           id="path15"
           d="m 0,0 c -0.537,0 -1.023,0.203 -1.458,0.604 -0.436,0.402 -0.654,0.906 -0.654,1.508 0,0.136 0.032,0.321 0.1,0.555 0.068,0.235 0.168,0.519 0.303,0.855 l 7.846,18.809 -19.314,45.565 c -0.201,0.534 -0.301,0.971 -0.301,1.307 0.066,0.604 0.301,1.122 0.705,1.558 0.402,0.436 0.903,0.655 1.508,0.655 h 9.757 c 0.871,0 1.508,-0.219 1.91,-0.655 0.403,-0.436 0.704,-0.888 0.905,-1.357 L 13.781,38.223 26.554,69.404 c 0.266,0.536 0.605,1.006 1.006,1.407 0.402,0.404 1.039,0.605 1.912,0.605 h 9.554 c 0.604,0 1.124,-0.219 1.56,-0.655 0.435,-0.436 0.653,-0.921 0.653,-1.458 0,-0.336 -0.135,-0.805 -0.402,-1.407 L 12.371,2.012 C 12.171,1.477 11.852,1.006 11.416,0.604 10.979,0.203 10.327,0 9.456,0 Z"
           style="fill:#000000;fill-opacity:1;fill-rule:nonzero;stroke:none"
           transform="matrix(1.3333333,0,0,-1.3333333,502.6952,501.79267)"
           clip-path="url(#clipPath16)" />
        <path
           id="path17"
           d="m 0,0 c -4.157,0 -7.73,0.487 -10.713,1.458 -2.983,0.971 -5.397,2.162 -7.241,3.57 -1.846,1.41 -3.219,2.833 -4.124,4.275 -0.906,1.443 -1.393,2.667 -1.458,3.673 -0.068,0.735 0.166,1.34 0.703,1.809 0.536,0.469 1.073,0.705 1.61,0.705 h 9.757 c 0.201,0 0.402,-0.035 0.603,-0.1 0.2,-0.068 0.403,-0.236 0.604,-0.505 0.871,-0.602 1.776,-1.291 2.715,-2.062 0.938,-0.77 2.027,-1.425 3.269,-1.96 1.239,-0.539 2.8,-0.805 4.677,-0.805 2.212,0 4.089,0.452 5.634,1.358 1.541,0.905 2.313,2.195 2.313,3.873 0,1.207 -0.353,2.213 -1.056,3.016 -0.705,0.805 -2.029,1.543 -3.974,2.213 -1.944,0.67 -4.827,1.41 -8.65,2.213 -3.621,0.805 -6.707,1.877 -9.253,3.219 -2.549,1.342 -4.461,3.033 -5.733,5.08 -1.275,2.045 -1.912,4.509 -1.912,7.394 0,2.614 0.821,5.128 2.464,7.542 1.643,2.416 4.074,4.408 7.293,5.986 3.219,1.573 7.241,2.363 12.07,2.363 3.686,0 6.923,-0.454 9.705,-1.357 2.783,-0.906 5.113,-2.047 6.992,-3.42 1.877,-1.377 3.302,-2.784 4.275,-4.225 0.971,-1.442 1.491,-2.699 1.558,-3.773 0.066,-0.67 -0.135,-1.242 -0.602,-1.709 -0.471,-0.471 -1.006,-0.705 -1.61,-0.705 h -8.952 c -0.336,0 -0.637,0.051 -0.906,0.151 -0.268,0.1 -0.502,0.253 -0.703,0.454 -0.805,0.535 -1.627,1.157 -2.466,1.859 -0.837,0.705 -1.826,1.325 -2.965,1.862 -1.142,0.537 -2.617,0.805 -4.426,0.805 -2.213,0 -3.908,-0.487 -5.08,-1.46 -1.174,-0.971 -1.761,-2.195 -1.761,-3.671 0,-0.938 0.303,-1.809 0.905,-2.614 0.605,-0.805 1.844,-1.543 3.723,-2.213 1.877,-0.672 4.727,-1.375 8.548,-2.112 4.561,-0.806 8.182,-2.012 10.864,-3.621 2.682,-1.61 4.609,-3.472 5.783,-5.582 1.174,-2.113 1.761,-4.376 1.761,-6.791 0,-3.152 -0.941,-5.951 -2.817,-8.398 C 19.547,5.347 16.812,3.435 13.227,2.062 9.639,0.687 5.231,0 0,0"
           style="fill:#000000;fill-opacity:1;fill-rule:nonzero;stroke:none"
           transform="matrix(1.3333333,0,0,-1.3333333,592.45453,477.65067)"
           clip-path="url(#clipPath18)" />
        <path
           id="path19"
           d="m 0,0 c -57.657,-0.007 -104.907,45.222 -135.995,74.971 -2.6,2.487 -5.113,4.892 -7.538,7.182 -32.227,30.445 -57.603,64.31 -67.387,78.008 -1.928,2.252 -3.446,4.495 -4.628,6.838 -4.223,8.365 -4.936,17.88 -2.006,26.787 2.931,8.906 9.153,16.139 17.524,20.365 19.252,9.72 31.097,17.782 42.41,34.876 3.403,5.143 5.57,13.636 7.864,22.629 5.15,20.187 12.205,47.834 41.329,62.539 29.119,14.704 55.558,3.963 74.858,-3.877 8.599,-3.494 16.721,-6.794 22.879,-7.108 20.469,-1.04 33.99,3.697 53.245,13.418 17.277,8.723 38.432,1.764 47.155,-15.516 1.183,-2.341 2.088,-4.893 2.754,-7.78 2.486,-7.63 7.136,-22.662 11.745,-41.515 1.737,-7.097 -2.61,-14.257 -9.707,-15.993 -7.094,-1.727 -14.255,2.61 -15.992,9.708 -4.53,18.52 -9.082,33.128 -11.391,40.187 l -0.367,1.36 c -0.199,0.934 -0.415,1.622 -0.657,2.104 -2.149,4.259 -7.356,5.978 -11.616,3.826 -18.604,-9.39 -37.688,-17.705 -66.521,-16.222 -10.622,0.543 -20.757,4.66 -31.485,9.018 -17.789,7.227 -34.593,14.05 -52.976,4.771 -18.386,-9.283 -22.87,-26.856 -27.616,-45.462 -2.863,-11.219 -5.567,-21.817 -11.438,-30.688 -15.936,-24.081 -33.951,-34.504 -52.549,-43.894 -2.062,-1.04 -3.593,-2.822 -4.316,-5.015 -0.721,-2.193 -0.545,-4.537 0.496,-6.598 0.244,-0.485 0.671,-1.066 1.307,-1.784 l 0.875,-1.1 c 9.047,-12.705 33.43,-45.411 64.381,-74.648 2.463,-2.328 5.017,-4.772 7.66,-7.302 39.713,-38.004 94.101,-90.05 159.339,-57.115 3.684,1.86 7.221,3.898 10.514,6.061 6.109,4.015 14.31,2.306 18.319,-3.798 C 74.48,33.125 72.78,24.924 66.671,20.915 62.545,18.205 58.132,15.66 53.558,13.351 34.906,3.935 16.994,0.002 0,0"
           style="fill:#faaf3b;fill-opacity:1;fill-rule:nonzero;stroke:none"
           transform="matrix(1.3333333,0,0,-1.3333333,422.58747,594.33653)"
           clip-path="url(#clipPath20)" />
      </g>
      <rect
         style="fill:none;fill-opacity:1"
         id="rect20"
         width="569.50311"
         height="543.87543"
         x="104.71224"
         y="95.287201" />
    </g>
  </g>
</svg>
