<?xml version="1.0" encoding="UTF-8" standalone="no"?>
<!-- Created with Inkscape (http://www.inkscape.org/) -->

<svg
   width="50.159721mm"
   height="25.206799mm"
   viewBox="0 0 50.159723 25.206798"
   version="1.1"
   id="svg1"
   xml:space="preserve"
   inkscape:version="1.4.2 (ebf0e940d0, 2025-05-08)"
   sodipodi:docname="suse.svg"
   xmlns:inkscape="http://www.inkscape.org/namespaces/inkscape"
   xmlns:sodipodi="http://sodipodi.sourceforge.net/DTD/sodipodi-0.dtd"
   xmlns="http://www.w3.org/2000/svg"
   xmlns:svg="http://www.w3.org/2000/svg"><sodipodi:namedview
     id="namedview1"
     pagecolor="#ffffff"
     bordercolor="#666666"
     borderopacity="1.0"
     inkscape:showpageshadow="2"
     inkscape:pageopacity="0.0"
     inkscape:pagecheckerboard="0"
     inkscape:deskcolor="#d1d1d1"
     inkscape:document-units="mm"
     inkscape:zoom="1.1546117"
     inkscape:cx="236.44313"
     inkscape:cy="35.076727"
     inkscape:window-width="1765"
     inkscape:window-height="1150"
     inkscape:window-x="10"
     inkscape:window-y="10"
     inkscape:window-maximized="0"
     inkscape:current-layer="layer1" /><defs
     id="defs1" /><g
     inkscape:label="Layer 1"
     inkscape:groupmode="layer"
     id="layer1"
     transform="translate(-39.313907,-117.7351)"><path
       style="fill:#30b977;stroke:none;stroke-width:0.256813"
       d="m 79.749001,138.34757 c -0.124164,-0.67402 -0.674131,-0.89198 -1.223076,-1.16645 -0.869266,-0.43463 -2.254258,-1.11548 -2.378203,-2.23098 -0.21804,-1.96239 1.433537,-2.10135 2.921793,-1.81197 2.520664,0.49013 5.240974,0.13891 7.610249,-0.81538 0.601845,-0.24241 1.975506,-0.78073 2.174354,-1.44957 -0.654343,-0.13776 -1.510357,0.0714 -2.174354,0.13589 -1.546551,0.15037 -3.312113,-0.11593 -4.688457,-0.80406 -0.411606,-0.2058 -1.721364,-0.81649 -1.721364,-1.37028 0,-0.30883 0.358766,-0.37595 0.566236,-0.24916 0.961495,0.58759 1.737618,1.1139 2.853843,1.39295 1.372597,0.34315 2.815362,0.14723 4.212817,0.14723 0.332096,0 1.225133,0.15649 1.472222,-0.0906 0.202079,-0.20208 0.03244,-0.5576 0.02265,-0.79272 -0.03149,-0.75588 -0.06305,-1.49304 -0.135897,-2.24232 -0.170994,-1.75876 -0.841402,-3.55304 -2.174356,-4.7564 -0.64679,-0.58391 -1.472773,-0.871 -2.242305,-1.2344 -1.261991,-0.59594 -2.516511,-1.24107 -3.805125,-1.77799 -0.868529,-0.36189 -1.740019,-0.79073 -2.582048,-1.21175 -0.309705,-0.15486 -0.802232,-0.44666 -1.143802,-0.16987 -0.310852,0.25189 -0.215171,0.78212 -0.215171,1.13247 0,1.07774 0.06794,2.17309 0.06794,3.26154 -0.753934,-0.7341 -1.725183,-1.06947 -2.649999,-1.50619 -1.483761,-0.70066 -3.029014,-1.26796 -4.620506,-1.71005 -7.85803,-2.18279 -16.042519,-1.56639 -23.102541,2.65 -4.795877,2.8642 -8.454574,7.68423 -7.247855,13.47648 0.546636,2.62385 2.321522,5.30657 4.733756,6.5797 3.994402,2.10816 9.898247,1.67625 11.800414,-3.04636 0.771677,-1.91589 0.572161,-4.44653 -0.679488,-6.11539 -1.797283,-2.39637 -5.410522,-3.53264 -7.927342,-1.54016 -1.359281,1.07609 -1.725454,3.13431 -0.770083,4.59786 0.411289,0.63006 0.985774,1.17646 1.789314,1.08717 0.422756,-0.047 0.752194,-0.45423 0.656837,-0.88333 -0.185284,-0.83376 -0.955224,-1.13399 -0.860683,-2.10641 0.170979,-1.75865 2.826619,-1.87371 4.008971,-1.20042 2.311399,1.31622 2.001666,4.52498 0.06794,6.00213 -0.538497,0.41135 -1.181233,0.69733 -1.834613,0.86068 -1.473691,0.36843 -3.165076,0.19917 -4.484611,-0.58888 -3.297009,-1.96906 -4.356498,-6.98792 -1.358972,-9.69401 2.824385,-2.54981 7.120099,-2.46425 10.260246,-0.58889 1.548746,0.92494 2.800924,2.45657 3.714524,3.98632 0.846712,1.41774 1.33349,3.00869 2.174357,4.41666 0.367648,0.6156 0.84047,1.29632 1.585468,1.47222 1.30519,0.30816 2.872105,0.0906 4.212817,0.0906 0.2903,0 1.24157,0.15347 1.347646,-0.20384 0.158447,-0.53373 -0.851165,-0.90404 -1.211747,-1.01924 -1.104394,-0.35279 -2.604755,-0.83782 -2.219657,-2.3782 0.142614,-0.57047 0.812214,-0.40769 1.268375,-0.40769 h 3.737174 c 1.55966,0 2.898813,0.9345 3.759824,2.17436 0.294013,0.42338 0.466975,1.31283 0.860686,1.60812 0.390894,0.29317 1.167507,0.22649 1.630768,0.22649 1.306348,0 2.659757,0.1001 3.941021,-0.1359 m 5.096149,-15.82071 c 1.644798,-0.25128 3.047229,1.33714 3.193588,2.84253 0.148474,1.52713 -1.132825,3.04608 -2.649997,3.19358 -2.76755,0.26906 -4.468152,-3.03594 -2.58205,-5.09615 0.539734,-0.58956 1.275542,-0.8234 2.038459,-0.93996 m -0.271794,0.82671 c -2.93258,0.61095 -1.867933,5.05306 1.01923,4.37137 2.729108,-0.64438 1.709071,-4.93976 -1.01923,-4.37137 m 1.358971,1.82329 c 1.079892,-0.22498 1.460483,1.34822 0.407693,1.59679 -0.986068,0.23283 -1.371003,-1.3961 -0.407693,-1.59679 z"
       id="path1" /></g></svg>
