<?xml version="1.0" encoding="UTF-8" standalone="no"?>
<!-- Created with Inkscape (http://www.inkscape.org/) -->

<svg
   version="1.1"
   id="svg1"
   width="265.26361"
   height="133.45102"
   viewBox="0 0 265.26361 133.45102"
   sodipodi:docname="suse.svg"
   inkscape:version="1.4.2 (ebf0e940d0, 2025-05-08)"
   xmlns:inkscape="http://www.inkscape.org/namespaces/inkscape"
   xmlns:sodipodi="http://sodipodi.sourceforge.net/DTD/sodipodi-0.dtd"
   xmlns="http://www.w3.org/2000/svg"
   xmlns:svg="http://www.w3.org/2000/svg">
  <defs
     id="defs1" />
  <sodipodi:namedview
     id="namedview1"
     pagecolor="#ffffff"
     bordercolor="#666666"
     borderopacity="1.0"
     inkscape:showpageshadow="2"
     inkscape:pageopacity="0.0"
     inkscape:pagecheckerboard="0"
     inkscape:deskcolor="#d1d1d1"
     inkscape:zoom="2.9488509"
     inkscape:cx="127.67685"
     inkscape:cy="87.830824"
     inkscape:window-width="2540"
     inkscape:window-height="1393"
     inkscape:window-x="10"
     inkscape:window-y="10"
     inkscape:window-maximized="0"
     inkscape:current-layer="g1" />
  <g
     inkscape:groupmode="layer"
     inkscape:label="Image"
     id="g1"
     transform="translate(-44.936635,-62.42035)">
    <path
       style="fill:#279965;stroke:none"
       d="m 258.88001,171.20001 c -1.51414,-4.23217 -5.30162,-5.22235 -8.96,-7.12614 -3.94824,-2.05463 -7.88465,-4.96668 -9.63071,-9.19387 -1.99265,-4.82418 0.53311,-11.33332 6.11071,-11.88078 5.13254,-0.50379 10.55992,1.24701 15.68,1.60409 10.65137,0.74279 21.6875,-0.53473 31.68,-4.34454 4.45875,-1.69998 10.79305,-4.23474 13.44,-8.41877 -12.22289,2.2e-4 -24.71258,2.49914 -36.16,-3.28058 -2.40604,-1.21479 -8.83328,-4.24651 -9.16324,-7.27578 -0.17936,-1.64655 1.61736,-2.0828 2.78224,-1.4894 5.70758,2.90748 10.04957,6.475 16.621,7.59082 7.04385,1.19604 14.6667,0.82375 21.76,0.33164 1.70937,-0.11859 5.42312,0.91856 6.67211,-0.62591 0.80193,-0.99168 0.37639,-3.33428 0.36682,-4.53079 -0.0338,-4.22246 -0.506,-8.62384 -1.14901,-12.8 -1.23467,-8.01877 -3.70629,-16.06281 -9.50859,-22.016911 -3.98664,-4.090918 -9.22162,-6.152989 -14.30133,-8.486661 -6.4176,-2.94832 -12.78272,-6.011816 -19.2,-8.96 -4.70887,-2.163301 -9.33172,-4.542168 -14.08,-6.616387 -1.66852,-0.728867 -3.93692,-2.005684 -5.66477,-0.689746 -1.64062,1.249512 -1.05523,4.329492 -1.05523,6.129707 0,5.6692 0.32,11.292227 0.32,16.960001 C 230.36358,75.925217 212.33126,69.794104 194.56001,66.240002 157.74328,58.876955 120.23916,62.322131 87.360003,81.418362 68.149167,92.576018 49.608048,109.27713 45.640456,132.16 c -1.129053,6.51176 -0.7698,13.64748 0.163618,20.16 0.874843,6.10381 2.938686,11.93204 6.001606,17.28001 3.756558,6.55908 9.139869,12.98896 15.394322,17.26628 18.570557,12.7001 50.312578,13.51946 63.333578,-7.66628 2.2919,-3.72905 3.81952,-7.86879 4.62886,-12.16 1.78871,-9.48395 -0.16841,-19.47909 -6.05219,-27.20001 -9.26693,-12.16041 -28.06652,-17.0158 -40.790003,-7.27898 -8.672403,6.63666 -10.70045,25.75168 1.919756,29.95225 2.577295,0.85783 6.107637,-0.0835 6.514775,-3.15352 0.34087,-2.57031 -1.932568,-4.43611 -3.180166,-6.39975 -1.37123,-2.15822 -1.717002,-4.57726 -1.036377,-7.04 3.313067,-11.98791 21.589435,-7.73361 26.775265,0 8.42459,12.56356 -1.42132,27.20047 -14.3535,30.89934 -22.59613,6.46297 -45.134515,-14.99543 -40.805721,-37.93934 2.269175,-12.0273 11.948399,-20.74242 23.205724,-24.60863 25.408577,-8.72631 49.171877,7.1492 61.439147,28.76863 3.45494,6.08887 5.91382,12.63735 9.04056,18.88 1.7298,3.4536 3.93195,7.30501 7.6003,8.97811 2.71209,1.23695 5.74019,0.9419 8.64,0.9419 h 15.04 c 1.42025,0 6.52697,0.77296 7.22556,-0.77194 1.08664,-2.40305 -4.06926,-4.5981 -5.62556,-5.16305 -5.66471,-2.05632 -14.81571,-4.50888 -12.27256,-12.94365 0.86465,-2.86775 4.16847,-2.24137 6.51256,-2.24137 6.56597,0 13.29091,-0.42234 19.84,0.0367 8.34517,0.58495 15.21814,4.68295 20.01275,11.48331 1.71838,2.43722 2.5758,6.99214 4.99375,8.69304 2.08442,1.46627 5.55234,0.90696 7.9535,0.90696 6.52015,0 14.88711,1.38193 21.12,-0.64 m 25.6,-83.413464 c 16.73994,-2.402422 24.9493,20.300564 10.88,29.423044 -1.92481,1.24803 -4.12615,2.04287 -6.4,2.36409 -16.56528,2.34002 -24.85852,-20.326939 -10.88,-29.369966 1.88932,-1.222246 4.16512,-2.096426 6.4,-2.417168 m 8.32004,13.852464 c -5.56127,0.60508 -4.55963,9.08375 0.95996,8.36119 5.1768,-0.67768 4.26064,-8.9292 -0.95996,-8.36119"
       id="path1"
       sodipodi:nodetypes="cssssscsssssssssssssscsssssssssssssssssssssssssssssssccscsccsc" />
  </g>
</svg>
