<?xml version="1.0" encoding="UTF-8" standalone="no"?>
<!-- Created with Inkscape (http://www.inkscape.org/) -->

<svg
   version="1.1"
   id="svg1"
   width="265.44562"
   height="230.61107"
   viewBox="0 0 265.44562 230.61107"
   sodipodi:docname="suse-text.svg"
   inkscape:version="1.4.2 (ebf0e940d0, 2025-05-08)"
   xmlns:inkscape="http://www.inkscape.org/namespaces/inkscape"
   xmlns:sodipodi="http://sodipodi.sourceforge.net/DTD/sodipodi-0.dtd"
   xmlns="http://www.w3.org/2000/svg"
   xmlns:svg="http://www.w3.org/2000/svg">
  <defs
     id="defs1" />
  <sodipodi:namedview
     id="namedview1"
     pagecolor="#ffffff"
     bordercolor="#666666"
     borderopacity="1.0"
     inkscape:showpageshadow="2"
     inkscape:pageopacity="0.0"
     inkscape:pagecheckerboard="0"
     inkscape:deskcolor="#d1d1d1"
     inkscape:zoom="2.3676557"
     inkscape:cx="128.18587"
     inkscape:cy="87.850613"
     inkscape:window-width="2540"
     inkscape:window-height="1393"
     inkscape:window-x="10"
     inkscape:window-y="10"
     inkscape:window-maximized="0"
     inkscape:current-layer="g1" />
  <g
     inkscape:groupmode="layer"
     inkscape:label="Image"
     id="g1"
     transform="translate(-44.754608,-62.42035)">
    <path
       style="fill:#279965;stroke:none"
       d="m 258.88001,171.20001 c -1.51414,-4.23217 -5.30162,-5.22235 -8.96,-7.12614 -3.94824,-2.05463 -7.88465,-4.96668 -9.63071,-9.19387 -1.99265,-4.82418 0.53311,-11.33332 6.11071,-11.88078 5.13254,-0.50379 10.55992,1.24701 15.68,1.60409 10.65137,0.74279 21.6875,-0.53473 31.68,-4.34454 4.45875,-1.69998 10.79305,-4.23474 13.44,-8.41877 -12.22289,2.2e-4 -24.71258,2.49914 -36.16,-3.28058 -2.40604,-1.21479 -8.83328,-4.24651 -9.16324,-7.27578 -0.17936,-1.64655 1.61736,-2.0828 2.78224,-1.4894 5.70758,2.90748 10.04957,6.475 16.621,7.59082 7.04385,1.19604 14.6667,0.82375 21.76,0.33164 1.70937,-0.11859 5.42312,0.91856 6.67211,-0.62591 0.80193,-0.99168 0.37639,-3.33428 0.36682,-4.53079 -0.0338,-4.22246 -0.506,-8.62384 -1.14901,-12.8 -1.23467,-8.01877 -3.70629,-16.06281 -9.50859,-22.016911 -3.98664,-4.090918 -9.22162,-6.152989 -14.30133,-8.486661 -6.4176,-2.94832 -12.78272,-6.011816 -19.2,-8.96 -4.70887,-2.163301 -9.33172,-4.542168 -14.08,-6.616387 -1.66852,-0.728867 -3.93692,-2.005684 -5.66477,-0.689746 -1.64062,1.249512 -1.05523,4.329492 -1.05523,6.129707 0,5.6692 0.32,11.292227 0.32,16.960001 C 230.36358,75.925217 212.33126,69.794104 194.56001,66.240002 157.74328,58.876955 120.23916,62.322131 87.360003,81.418362 68.149167,92.576018 49.608048,109.27713 45.640456,132.16 c -1.129053,6.51176 -0.7698,13.64748 0.163618,20.16 0.874843,6.10381 2.938686,11.93204 6.001606,17.28001 3.756558,6.55908 9.139869,12.98896 15.394322,17.26628 18.570557,12.7001 50.312578,13.51946 63.333578,-7.66628 2.2919,-3.72905 3.81952,-7.86879 4.62886,-12.16 1.78871,-9.48395 -0.16841,-19.47909 -6.05219,-27.20001 -9.26693,-12.16041 -28.06652,-17.0158 -40.790003,-7.27898 -8.672403,6.63666 -10.70045,25.75168 1.919756,29.95225 2.577295,0.85783 6.107637,-0.0835 6.514775,-3.15352 0.34087,-2.57031 -1.932568,-4.43611 -3.180166,-6.39975 -1.37123,-2.15822 -1.717002,-4.57726 -1.036377,-7.04 3.313067,-11.98791 21.589435,-7.73361 26.775265,0 8.42459,12.56356 -1.42132,27.20047 -14.3535,30.89934 -22.59613,6.46297 -45.134515,-14.99543 -40.805721,-37.93934 2.269175,-12.0273 11.948399,-20.74242 23.205724,-24.60863 25.408577,-8.72631 49.171877,7.1492 61.439147,28.76863 3.45494,6.08887 5.91382,12.63735 9.04056,18.88 1.7298,3.4536 3.93195,7.30501 7.6003,8.97811 2.71209,1.23695 5.74019,0.9419 8.64,0.9419 h 15.04 c 1.42025,0 6.52697,0.77296 7.22556,-0.77194 1.08664,-2.40305 -4.06926,-4.5981 -5.62556,-5.16305 -5.66471,-2.05632 -14.81571,-4.50888 -12.27256,-12.94365 0.86465,-2.86775 4.16847,-2.24137 6.51256,-2.24137 6.56597,0 13.29091,-0.42234 19.84,0.0367 8.34517,0.58495 15.21814,4.68295 20.01275,11.48331 1.71838,2.43722 2.5758,6.99214 4.99375,8.69304 2.08442,1.46627 5.55234,0.90696 7.9535,0.90696 6.52015,0 14.88711,1.38193 21.12,-0.64 m 25.6,-83.413464 c 16.73994,-2.402422 24.9493,20.300564 10.88,29.423044 -1.92481,1.24803 -4.12615,2.04287 -6.4,2.36409 -16.56528,2.34002 -24.85852,-20.326939 -10.88,-29.369966 1.88932,-1.222246 4.16512,-2.096426 6.4,-2.417168 m 8.32004,13.852464 c -5.56127,0.60508 -4.55963,9.08375 0.95996,8.36119 5.1768,-0.67768 4.26064,-8.9292 -0.95996,-8.36119"
       id="path1"
       sodipodi:nodetypes="cssssscsssssssssssssscsssssssssssssssssssssssssssssssccscsccsc" />
    <path
       style="fill:#0d332b;fill-opacity:1;stroke:none"
       d="m 67.520002,226.3786 c -4.398164,0.54643 -8.589287,1.4352 -12.48,3.66713 -9.511129,5.45611 -13.894791,20.65111 -4.156665,28.22012 7.484414,5.8173 17.466289,6.11291 26.236665,8.66033 4.174932,1.21266 9.652784,3.99637 8.455098,9.23383 -2.381777,10.41551 -20.643579,8.60324 -27.335098,4.40123 -3.259283,-2.0467 -6.457207,-7.23877 -10.876377,-4.66674 -6.216622,3.61815 0.153833,9.84965 3.836377,12.16061 7.923437,4.97228 18.4721,5.82211 27.52,4.28095 5.321661,-0.90644 10.486544,-3.15472 14.102755,-7.25277 5.263809,-5.96514 5.829355,-16.46621 -0.08897,-22.26229 -7.010362,-6.86556 -18.231451,-6.89978 -27.13379,-9.43482 -4.104082,-1.16869 -9.291582,-3.89816 -8.884859,-8.90617 0.9023,-11.11004 18.914747,-10.56633 25.52486,-5.81293 3.057187,2.19847 5.779941,7.17746 10.219668,4.43769 4.970986,-3.06758 0.864726,-8.44105 -2.219668,-10.88304 -6.135997,-4.85801 -14.997628,-6.80252 -22.720001,-5.84313 m 53.439993,0.0245 c -2.90506,0.55166 -4.31796,3.15516 -4.46074,5.91688 -0.35647,6.8949 -0.0193,13.89523 -0.0193,20.8 0,13.20912 -1.9299,30.89433 12.8,37.29828 2.75784,1.19898 5.66788,1.85932 8.64001,2.2423 3.30767,0.42622 7.25499,0.45163 10.56,-0.002 2.83744,-0.38969 5.69761,-1.0282 8.31999,-2.20445 16.20517,-7.26864 12.80001,-27.65266 12.80001,-42.13387 0,-5.61215 0.89666,-12.08227 -0.12108,-17.6 -0.42975,-2.32994 -2.29287,-4.15946 -4.67892,-4.39825 -8.03138,-0.80371 -5.76001,11.74729 -5.76001,16.55825 0,14.10572 4.77192,38.87926 -14.72,40.73424 -2.39232,0.22767 -5.05727,-0.0484 -7.36,-0.75354 -5.18329,-1.58717 -8.15643,-6.0432 -9.12572,-11.1807 -1.85803,-9.84803 -0.47428,-21.03071 -0.47428,-31.04 0,-4.6377 1.54442,-15.74547 -6.4,-14.23688 m 90.88001,-0.0245 c -4.38022,0.5442 -8.6569,1.45168 -12.48,3.76959 -9.82205,5.95498 -13.4875,21.16674 -3.2,28.67445 7.05552,5.14907 16.20797,5.43237 24.32,7.7376 4.25041,1.20787 10.82166,3.63694 9.69386,9.27977 -2.15785,10.7966 -20.86205,8.94752 -27.61386,4.56959 -3.30216,-2.14115 -6.36174,-7.21237 -10.85967,-4.39885 -5.77815,3.6143 0.34442,9.56973 3.81968,11.87059 7.742,5.12574 18.5511,5.963 27.52,4.45492 5.31361,-0.89346 10.70566,-3.10879 14.32821,-7.21733 5.42779,-6.15595 5.58273,-16.96146 -0.57159,-22.67884 -7.31524,-6.79588 -18.52965,-6.44057 -27.51662,-9.33375 -4.25436,-1.36961 -8.58243,-4.22961 -7.92733,-9.26633 1.36641,-10.50543 18.77049,-9.79315 25.20733,-5.35873 3.11638,2.14691 5.74562,7.27789 10.23638,4.66424 5.19135,-3.02141 1.29055,-8.31708 -1.91638,-10.88284 -6.20951,-4.96802 -15.21317,-6.85646 -23.04,-5.88408 m 58.56,37.62141 h 25.28 c 3.20074,0 7.46518,-0.16223 7.46518,-4.48 0,-4.3542 -4.2387,-4.48 -7.46518,-4.48 h -25.28 c 0,-4.15957 -0.0326,-8.32059 10e-4,-12.48 0.0177,-2.18774 0.42707,-4.47852 2.56789,-5.58733 2.16109,-1.11931 5.62027,-0.49267 7.99104,-0.49267 h 18.24 c 3.35091,0 8.46953,0.64972 9.19238,-3.84 1.09737,-6.8158 -7.96492,-5.44 -12.07238,-5.44 -10.37297,0 -29.51871,-3.99492 -34.21235,8.32 -1.82527,4.78906 -0.98765,10.64211 -0.98765,15.68 0,9.51918 -1.46567,20.39297 0.20176,29.76 0.72662,4.08187 3.17167,7.57801 6.83823,9.55045 3.66799,1.97322 7.82021,1.64955 11.84,1.64955 h 19.84 c 3.54158,0 8.71148,0.16574 8.60988,-4.8 -0.1007,-4.92188 -5.31771,-4.8 -8.92988,-4.8 h -18.56 c -2.31406,0 -5.89053,0.66445 -7.99639,-0.41119 -2.2076,-1.1276 -2.55564,-3.44832 -2.56336,-5.66881 -0.0145,-4.15988 -2.5e-4,-8.32008 -2.5e-4,-12.48 z"
       id="path2"
       sodipodi:nodetypes="csssssssssssssssccsssscsssssssssccsssssssssssssssccssscssssssssssssssssscc" />
  </g>
</svg>
